<?xml version="1.0" encoding="UTF-8"?>
<!DOCTYPE svg PUBLIC "-//W3C//DTD SVG 1.1//EN" "http://www.w3.org/Graphics/SVG/1.1/DTD/svg11.dtd">
<!-- Creator: CorelDRAW X5 -->
<svg xmlns="http://www.w3.org/2000/svg" xml:space="preserve" width="0.252642in" height="0.292587in" style="shape-rendering:geometricPrecision; text-rendering:geometricPrecision; image-rendering:optimizeQuality; fill-rule:evenodd; clip-rule:evenodd"
viewBox="0 0 0.0104911 0.0121499"
 xmlns:xlink="http://www.w3.org/1999/xlink">
 <defs>
  <style type="text/css">
   <![CDATA[
    .fil0 {fill:#1ABB9C}
   ]]>
  </style>
 </defs>
 <g id="Layer_x0020_1">
  <metadata id="CorelCorpID_0Corel-Layer"/>
  <path class="fil0" d="M-0 0l0.0104911 0 0 0.0121499 -0.0104911 0 0 -0.0121499zm0.00608042 0.00257934l0.00351023 0 0 0.00118185 -0.00351023 0 0 -0.00118185zm0 0.0068354l0.00351023 0 0 0.00118185 -0.00351023 0 0 -0.00118185zm0 -0.0034177l0.00351023 0 0 0.00118185 -0.00351023 0 0 -0.00118185zm-0.00449198 0.00269296l0.0014503 0.00108654 0.00167754 -0.00239852 0.000536238 0.00013455 -0.0020377 0.00352184 -0.00231433 -0.00140893 0.000687954 -0.000935474zm0 -0.00309939l0.0014503 0.00108654 0.00167754 -0.00239852 0.000536238 0.00013455 -0.0020377 0.00352184 -0.00231433 -0.00140893 0.000687954 -0.000935474zm0 -0.00316315l0.0014503 0.00108654 0.00167754 -0.00239852 0.000536238 0.00013455 -0.0020377 0.00352184 -0.00231433 -0.00140893 0.000687954 -0.000935474z"/>
 </g>
</svg>
